<svg width="18" height="11" viewBox="0 0 18 11" fill="none" xmlns="http://www.w3.org/2000/svg">
<path d="M4.79289 10.7071C5.18342 11.0976 5.81658 11.0976 6.20711 10.7071C6.59763 10.3166 6.59763 9.68342 6.20711 9.29289L4.79289 10.7071ZM1.70711 4.79289C1.31658 4.40237 0.683418 4.40237 0.292892 4.79289C-0.0976319 5.18342 -0.0976318 5.81658 0.292892 6.20711L1.70711 4.79289ZM0.292892 4.79289C-0.0976319 5.18342 -0.0976318 5.81658 0.292892 6.20711C0.683418 6.59763 1.31658 6.59763 1.70711 6.20711L0.292892 4.79289ZM6.20711 1.70711C6.59763 1.31658 6.59763 0.683418 6.20711 0.292894C5.81658 -0.0976305 5.18342 -0.0976304 4.79289 0.292894L6.20711 1.70711ZM1 4.5C0.447715 4.5 -4.41685e-07 4.94772 -3.93402e-07 5.5C-3.4512e-07 6.05229 0.447715 6.5 1 6.5L1 4.5ZM17 6.5C17.5523 6.5 18 6.05228 18 5.5C18 4.94772 17.5523 4.5 17 4.5L17 6.5ZM6.20711 9.29289L1.70711 4.79289L0.292892 6.20711L4.79289 10.7071L6.20711 9.29289ZM1.70711 6.20711L6.20711 1.70711L4.79289 0.292894L0.292892 4.79289L1.70711 6.20711ZM1 6.5L17 6.5L17 4.5L1 4.5L1 6.5Z" fill="white"/>
</svg>
