<svg width="22" height="22" viewBox="0 0 22 22" fill="none" xmlns="http://www.w3.org/2000/svg">
<path d="M14.896 20.625C15.3214 20.625 15.7295 20.456 16.0303 20.1552C16.3312 19.8544 16.5002 19.4463 16.5002 19.0209C16.5002 18.5954 16.3312 18.1874 16.0303 17.8866C15.7295 17.5857 15.3214 17.4167 14.896 17.4167C14.4705 17.4167 14.0625 17.5857 13.7617 17.8866C13.4608 18.1874 13.2918 18.5954 13.2918 19.0209C13.2918 19.4463 13.4608 19.8544 13.7617 20.1552C14.0625 20.456 14.4705 20.625 14.896 20.625ZM7.56266 20.625C7.98811 20.625 8.39614 20.456 8.69698 20.1552C8.99782 19.8544 9.16683 19.4463 9.16683 19.0209C9.16683 18.5954 8.99782 18.1874 8.69698 17.8866C8.39614 17.5857 7.98811 17.4167 7.56266 17.4167C7.13721 17.4167 6.72919 17.5857 6.42835 17.8866C6.12751 18.1874 5.9585 18.5954 5.9585 19.0209C5.9585 19.4463 6.12751 19.8544 6.42835 20.1552C6.72919 20.456 7.13721 20.625 7.56266 20.625ZM4.43683 3.61171L4.2535 5.85754C4.21683 6.28837 4.556 6.64587 4.98683 6.64587H19.021C19.406 6.64587 19.7268 6.35254 19.7543 5.96754C19.8735 4.34504 18.636 3.02504 17.0135 3.02504H5.74766C5.656 2.62171 5.47266 2.23671 5.1885 1.91587C4.73016 1.43004 4.0885 1.14587 3.4285 1.14587H1.8335C1.45766 1.14587 1.146 1.45754 1.146 1.83337C1.146 2.20921 1.45766 2.52087 1.8335 2.52087H3.4285C3.71266 2.52087 3.9785 2.64004 4.171 2.84171C4.3635 3.05254 4.45516 3.32754 4.43683 3.61171ZM18.801 8.02087H4.73933C4.35433 8.02087 4.04266 8.31421 4.006 8.69004L3.676 12.6775C3.64453 13.047 3.69011 13.419 3.80985 13.7699C3.9296 14.1208 4.12091 14.4431 4.37166 14.7162C4.62241 14.9894 4.92714 15.2075 5.26656 15.3568C5.60598 15.506 5.9727 15.5832 6.3435 15.5834H16.5368C17.9118 15.5834 19.1218 14.4559 19.2227 13.0809L19.5252 8.80004C19.5339 8.70018 19.5216 8.5996 19.489 8.50479C19.4564 8.40998 19.4044 8.32306 19.3361 8.24963C19.2679 8.1762 19.185 8.11791 19.0928 8.0785C19.0006 8.0391 18.9012 8.01947 18.801 8.02087Z" fill="#96A7AF"/>
</svg>
