<svg width="24" height="24" viewBox="0 0 24 24" fill="none" xmlns="http://www.w3.org/2000/svg">
<path d="M11.9702 22C17.4932 22 21.9702 17.523 21.9702 12C21.9702 6.477 17.4932 2 11.9702 2C6.44722 2 1.97021 6.477 1.97021 12C1.97021 17.523 6.44722 22 11.9702 22V22Z" stroke="white" stroke-width="1.5" stroke-linecap="round" stroke-linejoin="round"/>
<path d="M4.8999 4.93L8.4399 8.46M4.8999 19.07L8.4399 15.54M19.0499 19.07L15.5099 15.54M19.0499 4.93L15.5099 8.46M11.9999 16.5C13.1934 16.5 14.338 16.0259 15.1819 15.182C16.0258 14.3381 16.4999 13.1935 16.4999 12C16.4999 10.8065 16.0258 9.66193 15.1819 8.81802C14.338 7.97411 13.1934 7.5 11.9999 7.5C10.8064 7.5 9.66184 7.97411 8.81792 8.81802C7.97401 9.66193 7.4999 10.8065 7.4999 12C7.4999 13.1935 7.97401 14.3381 8.81792 15.182C9.66184 16.0259 10.8064 16.5 11.9999 16.5V16.5Z" stroke="white" stroke-width="1.5" stroke-linecap="round" stroke-linejoin="round"/>
</svg>
