<svg width="19" height="19" viewBox="0 0 19 19" fill="none" xmlns="http://www.w3.org/2000/svg">
<path d="M19 15.9434V10.4339C19 8.63171 19 7.73068 18.6295 6.93422C18.2589 6.13776 17.5612 5.53912 16.1657 4.34183L15.1102 3.43618C12.4403 1.14539 11.1053 0 9.5 0C7.89471 0 6.55975 1.14539 3.88982 3.43618L2.83426 4.34183C1.43881 5.53912 0.741084 6.13776 0.370542 6.93422C0 7.73068 0 8.63171 0 10.4339V15.9434C0 16.8929 0 17.3676 0.160698 17.7421C0.374965 18.2414 0.785946 18.6381 1.30322 18.8449C1.69119 19 2.18302 19 3.16667 19H3.51852C4.17294 19 4.50016 19 4.76862 18.9306C5.49714 18.7421 6.06619 18.1929 6.2614 17.4896C6.33333 17.2305 6.33333 16.9147 6.33333 16.283V13.9057C6.33333 12.2175 7.75105 10.8491 9.5 10.8491C11.249 10.8491 12.6667 12.2175 12.6667 13.9057V16.283C12.6667 16.9147 12.6667 17.2305 12.7386 17.4896C12.9338 18.1929 13.5029 18.7421 14.2314 18.9306C14.4999 19 14.8271 19 15.4815 19H15.8333C16.817 19 17.3088 19 17.6968 18.8449C18.214 18.6381 18.6251 18.2414 18.8393 17.7421C19 17.3676 19 16.8929 19 15.9434Z" fill="#96A7AF"/>
</svg>
