<svg width="24" height="24" viewBox="0 0 24 24" fill="none" xmlns="http://www.w3.org/2000/svg">
<path d="M19.0598 18.67L16.9198 14.4L14.7798 18.67M15.1698 17.91H18.6898" stroke="white" stroke-width="1.5" stroke-linecap="round" stroke-linejoin="round"/>
<path d="M9.01 5.85H4.95M6.97 5.17V5.85M16.92 22C16.2528 21.9999 15.5921 21.8683 14.9757 21.6129C14.3593 21.3574 13.7992 20.983 13.3275 20.5111C12.8558 20.0392 12.4816 19.479 12.2264 18.8625C11.9712 18.246 11.8399 17.5852 11.84 16.918C11.8401 16.2508 11.9717 15.5901 12.2272 14.9737C12.4826 14.3573 12.857 13.7972 13.3289 13.3255C13.8008 12.8538 14.361 12.4796 14.9775 12.2244C15.594 11.9692 16.2548 11.8379 16.922 11.838C18.2696 11.8383 19.5618 12.3738 20.5145 13.3269C21.4672 14.28 22.0023 15.5724 22.002 16.92C22.0017 18.2676 21.4662 19.5598 20.5131 20.5125C19.56 21.4652 18.2676 22.0003 16.92 22V22ZM5.02 2H8.94C11.01 2 12.01 3 11.96 5.02V8.94C12.01 11.01 11.01 12.01 8.94 11.96H5.02C3 12 2 11 2 8.93V5.01C2 3 3 2 5.02 2Z" stroke="white" stroke-width="1.5" stroke-linecap="round" stroke-linejoin="round"/>
<path d="M7.98994 5.84C7.98994 7.59 6.61994 9.01 4.93994 9.01" stroke="white" stroke-width="1.5" stroke-linecap="round" stroke-linejoin="round"/>
<path d="M9.01 9.01C8.28 9.01 7.62 8.62 7.16 8M2 15C2 18.87 5.13 22 9 22L7.95 20.25M22 9C22 5.13 18.87 2 15 2L16.05 3.75" stroke="white" stroke-width="1.5" stroke-linecap="round" stroke-linejoin="round"/>
</svg>
