<svg width="19" height="22" viewBox="0 0 19 22" fill="none" xmlns="http://www.w3.org/2000/svg">
<path fill-rule="evenodd" clip-rule="evenodd" d="M9.40094 0C5.69738 0 2.69505 2.95492 2.69505 6.6V9.42854C2.69505 10.4486 2.35891 11.4411 1.73707 12.2572L0.317048 14.1206C-0.226252 14.8336 -0.0674674 15.81 0.763928 16.1631C2.26007 16.7985 5.01621 17.6 9.40094 17.6C13.7857 17.6 16.5418 16.7985 18.0379 16.1631C18.8693 15.81 19.0281 14.8336 18.4848 14.1206L17.0648 12.2572C16.443 11.4411 16.1068 10.4486 16.1068 9.42854V6.6C16.1068 2.95492 13.1045 0 9.40094 0ZM9.40094 21.45C8.00846 21.45 6.85381 20.4473 6.64168 19.1356C7.47903 19.208 8.39729 19.25 9.40094 19.25C10.4045 19.25 11.3228 19.208 12.1602 19.1356C11.9481 20.4473 10.7934 21.45 9.40094 21.45Z" fill="#96A7AF"/>
</svg>
