<svg width="20" height="20" viewBox="0 0 20 20" fill="none" xmlns="http://www.w3.org/2000/svg">
<path fill-rule="evenodd" clip-rule="evenodd" d="M11.8993 1.72301C11.4511 -0.574337 8.16428 -0.574337 7.71605 1.72301C7.44332 3.12097 5.90236 3.86306 4.63934 3.20467C2.56376 2.12271 0.514422 4.6925 2.03112 6.47528C2.95405 7.56012 2.57346 9.22757 1.27123 9.80457C-0.868778 10.7527 -0.137378 13.9572 2.2021 13.883C3.6257 13.8378 4.69208 15.175 4.33125 16.5528C3.73827 18.8171 6.69965 20.2433 8.10028 18.3679C8.95248 17.2267 10.6629 17.2267 11.5151 18.3679C12.9157 20.2433 15.8771 18.8171 15.2841 16.5528C14.9233 15.175 15.9897 13.8378 17.4133 13.883C19.7528 13.9572 20.4842 10.7527 18.3441 9.80457C17.0419 9.22757 16.6613 7.56012 17.5843 6.47528C19.101 4.6925 17.0516 2.12271 14.976 3.20467C13.713 3.86306 12.1721 3.12097 11.8993 1.72301ZM9.80768 13.0016C11.4646 13.0016 12.8077 11.6585 12.8077 10.0016C12.8077 8.34467 11.4646 7.00157 9.80768 7.00157C8.15078 7.00157 6.80768 8.34467 6.80768 10.0016C6.80768 11.6585 8.15078 13.0016 9.80768 13.0016Z" fill="#96A7AF"/>
</svg>
